<?xml version="1.0" encoding="UTF-8" standalone="no"?>
<!-- Created with Inkscape (http://www.inkscape.org/) -->

<svg
   width="1920"
   height="1080"
   viewBox="0 0 508 285.75"
   version="1.1"
   id="svg1"
   inkscape:version="1.3.2 (091e20ef0f, 2023-11-25)"
   sodipodi:docname="mysql-poster.svg"
   xml:space="preserve"
   inkscape:export-filename="mysql-poster.jpg"
   inkscape:export-xdpi="96"
   inkscape:export-ydpi="96"
   xmlns:inkscape="http://www.inkscape.org/namespaces/inkscape"
   xmlns:sodipodi="http://sodipodi.sourceforge.net/DTD/sodipodi-0.dtd"
   xmlns="http://www.w3.org/2000/svg"
   xmlns:svg="http://www.w3.org/2000/svg"><sodipodi:namedview
     id="namedview1"
     pagecolor="#ffffff"
     bordercolor="#000000"
     borderopacity="0.25"
     inkscape:showpageshadow="2"
     inkscape:pageopacity="0.0"
     inkscape:pagecheckerboard="0"
     inkscape:deskcolor="#d1d1d1"
     inkscape:document-units="mm"
     inkscape:zoom="0.51717104"
     inkscape:cx="876.88591"
     inkscape:cy="517.23701"
     inkscape:window-width="1920"
     inkscape:window-height="1017"
     inkscape:window-x="-8"
     inkscape:window-y="-8"
     inkscape:window-maximized="1"
     inkscape:current-layer="layer2" /><defs
     id="defs1" /><g
     inkscape:label="图层 1"
     inkscape:groupmode="layer"
     id="layer1"
     sodipodi:insensitive="true"><g
       id="g37"
       transform="matrix(0.42649895,0,0,0.42649895,36.61694,14.918137)"><rect
         fill="#ffffff"
         height="38.132801"
         style="stroke:#181818;stroke-width:1"
         width="10"
         x="632.5"
         y="444.75781"
         id="rect1" /><rect
         fill="#ffffff"
         height="154.66409"
         style="stroke:#181818;stroke-width:1"
         width="10"
         x="768"
         y="328.22659"
         id="rect2" /><line
         style="stroke:#181818;stroke-width:0.5;stroke-dasharray:5, 5"
         x1="82"
         x2="82"
         y1="81.296898"
         y2="491.89059"
         id="line2" /><line
         style="stroke:#181818;stroke-width:0.5;stroke-dasharray:5, 5"
         x1="224"
         x2="224"
         y1="81.296898"
         y2="491.89059"
         id="line3" /><line
         style="stroke:#181818;stroke-width:0.5;stroke-dasharray:5, 5"
         x1="358.5"
         x2="358.5"
         y1="81.296898"
         y2="491.89059"
         id="line4" /><line
         style="stroke:#181818;stroke-width:0.5;stroke-dasharray:5, 5"
         x1="491.5"
         x2="491.5"
         y1="81.296898"
         y2="491.89059"
         id="line5" /><line
         style="stroke:#181818;stroke-width:0.5;stroke-dasharray:5, 5"
         x1="637.5"
         x2="637.5"
         y1="81.296898"
         y2="491.89059"
         id="line6" /><line
         style="stroke:#181818;stroke-width:0.5;stroke-dasharray:5, 5"
         x1="772.5"
         x2="772.5"
         y1="81.296898"
         y2="491.89059"
         id="line7" /><line
         style="stroke:#181818;stroke-width:0.5;stroke-dasharray:5, 5"
         x1="971"
         x2="971"
         y1="81.296898"
         y2="491.89059"
         id="line8" /><text
         fill="#000000"
         font-family="sans-serif"
         font-size="14px"
         lengthAdjust="spacing"
         textLength="149"
         x="5"
         y="77.995102"
         id="text8">CREATE TABLE Query</text><circle
         cx="82.5"
         cy="13.5"
         fill="#e2e2f0"
         style="stroke:#181818;stroke-width:0.5"
         id="ellipse8"
         r="8" /><path
         d="m 82.5,21.5 v 27 m -13,-19 h 26 m -13,19 -13,15 m 13,-15 13,15"
         fill="none"
         style="stroke:#181818;stroke-width:0.5"
         id="path8" /><text
         fill="#000000"
         font-family="sans-serif"
         font-size="14px"
         lengthAdjust="spacing"
         textLength="149"
         x="5"
         y="503.88571"
         id="text9">CREATE TABLE Query</text><circle
         cx="82.5"
         cy="515.6875"
         fill="#e2e2f0"
         style="stroke:#181818;stroke-width:0.5"
         id="ellipse9"
         r="8" /><path
         d="m 82.5,523.6875 v 27 m -13,-19 h 26 m -13,19 -13,15 m 13,-15 13,15"
         fill="none"
         style="stroke:#181818;stroke-width:0.5"
         id="path9" /><rect
         fill="#e2e2f0"
         height="30.2969"
         rx="2.5"
         ry="2.5"
         style="stroke:#181818;stroke-width:0.5"
         width="108"
         x="170"
         y="50"
         id="rect9" /><text
         fill="#000000"
         font-family="sans-serif"
         font-size="14px"
         lengthAdjust="spacing"
         textLength="94"
         x="177"
         y="69.995102"
         id="text10">MySQL Server</text><rect
         fill="#e2e2f0"
         height="30.2969"
         rx="2.5"
         ry="2.5"
         style="stroke:#181818;stroke-width:0.5"
         width="108"
         x="170"
         y="490.89059"
         id="rect10" /><text
         fill="#000000"
         font-family="sans-serif"
         font-size="14px"
         lengthAdjust="spacing"
         textLength="94"
         x="177"
         y="510.88571"
         id="text11">MySQL Server</text><rect
         fill="#e2e2f0"
         height="30.2969"
         rx="2.5"
         ry="2.5"
         style="stroke:#181818;stroke-width:0.5"
         width="89"
         x="314.5"
         y="50"
         id="rect11" /><text
         fill="#000000"
         font-family="sans-serif"
         font-size="14px"
         lengthAdjust="spacing"
         textLength="75"
         x="321.5"
         y="69.995102"
         id="text12">SQL Parser</text><rect
         fill="#e2e2f0"
         height="30.2969"
         rx="2.5"
         ry="2.5"
         style="stroke:#181818;stroke-width:0.5"
         width="89"
         x="314.5"
         y="490.89059"
         id="rect12" /><text
         fill="#000000"
         font-family="sans-serif"
         font-size="14px"
         lengthAdjust="spacing"
         textLength="75"
         x="321.5"
         y="510.88571"
         id="text13">SQL Parser</text><rect
         fill="#e2e2f0"
         height="30.2969"
         rx="2.5"
         ry="2.5"
         style="stroke:#181818;stroke-width:0.5"
         width="156"
         x="413.5"
         y="50"
         id="rect13" /><text
         fill="#000000"
         font-family="sans-serif"
         font-size="14px"
         lengthAdjust="spacing"
         textLength="142"
         x="420.5"
         y="69.995102"
         id="text14">Abstract Syntax Tree</text><rect
         fill="#e2e2f0"
         height="30.2969"
         rx="2.5"
         ry="2.5"
         style="stroke:#181818;stroke-width:0.5"
         width="156"
         x="413.5"
         y="490.89059"
         id="rect14" /><text
         fill="#000000"
         font-family="sans-serif"
         font-size="14px"
         lengthAdjust="spacing"
         textLength="142"
         x="420.5"
         y="510.88571"
         id="text15">Abstract Syntax Tree</text><rect
         fill="#e2e2f0"
         height="30.2969"
         rx="2.5"
         ry="2.5"
         style="stroke:#181818;stroke-width:0.5"
         width="116"
         x="579.5"
         y="50"
         id="rect15" /><text
         fill="#000000"
         font-family="sans-serif"
         font-size="14px"
         lengthAdjust="spacing"
         textLength="102"
         x="586.5"
         y="69.995102"
         id="text16">SQL Command</text><rect
         fill="#e2e2f0"
         height="30.2969"
         rx="2.5"
         ry="2.5"
         style="stroke:#181818;stroke-width:0.5"
         width="116"
         x="579.5"
         y="490.89059"
         id="rect16" /><text
         fill="#000000"
         font-family="sans-serif"
         font-size="14px"
         lengthAdjust="spacing"
         textLength="102"
         x="586.5"
         y="510.88571"
         id="text17">SQL Command</text><rect
         fill="#e2e2f0"
         height="30.2969"
         rx="2.5"
         ry="2.5"
         style="stroke:#181818;stroke-width:0.5"
         width="135"
         x="705.5"
         y="50"
         id="rect17" /><text
         fill="#000000"
         font-family="sans-serif"
         font-size="14px"
         lengthAdjust="spacing"
         textLength="121"
         x="712.5"
         y="69.995102"
         id="text18">HA_CREATE_INFO</text><rect
         fill="#e2e2f0"
         height="30.2969"
         rx="2.5"
         ry="2.5"
         style="stroke:#181818;stroke-width:0.5"
         width="135"
         x="705.5"
         y="490.89059"
         id="rect18" /><text
         fill="#000000"
         font-family="sans-serif"
         font-size="14px"
         lengthAdjust="spacing"
         textLength="121"
         x="712.5"
         y="510.88571"
         id="text19">HA_CREATE_INFO</text><rect
         fill="#e2e2f0"
         height="30.2969"
         rx="2.5"
         ry="2.5"
         style="stroke:#181818;stroke-width:0.5"
         width="106"
         x="918"
         y="50"
         id="rect19" /><text
         fill="#000000"
         font-family="sans-serif"
         font-size="14px"
         lengthAdjust="spacing"
         textLength="92"
         x="925"
         y="69.995102"
         id="text20">MySQL plugin</text><rect
         fill="#e2e2f0"
         height="30.2969"
         rx="2.5"
         ry="2.5"
         style="stroke:#181818;stroke-width:0.5"
         width="106"
         x="918"
         y="490.89059"
         id="rect20" /><text
         fill="#000000"
         font-family="sans-serif"
         font-size="14px"
         lengthAdjust="spacing"
         textLength="92"
         x="925"
         y="510.88571"
         id="text21">MySQL plugin</text><rect
         fill="#ffffff"
         height="38.132801"
         style="stroke:#181818;stroke-width:1"
         width="10"
         x="632.5"
         y="444.75781"
         id="rect21" /><rect
         fill="#ffffff"
         height="154.66409"
         style="stroke:#181818;stroke-width:1"
         width="10"
         x="768"
         y="328.22659"
         id="rect22" /><polygon
         fill="#181818"
         points="216,112.4297 212,108.4297 222,112.4297 212,116.4297 "
         style="stroke:#181818;stroke-width:1"
         id="polygon22" /><line
         style="stroke:#181818;stroke-width:1"
         x1="82.5"
         x2="218"
         y1="112.4297"
         y2="112.4297"
         id="line22" /><text
         fill="#000000"
         font-family="sans-serif"
         font-size="13px"
         lengthAdjust="spacing"
         textLength="108"
         x="89.5"
         y="107.3638"
         id="text22">DDL QUERY TEXT</text><polygon
         fill="#181818"
         points="351,141.5625 347,137.5625 357,141.5625 347,145.5625 "
         style="stroke:#181818;stroke-width:1"
         id="polygon23" /><line
         style="stroke:#181818;stroke-width:1"
         x1="224"
         x2="353"
         y1="141.5625"
         y2="141.5625"
         id="line23" /><text
         fill="#000000"
         font-family="sans-serif"
         font-size="13px"
         lengthAdjust="spacing"
         textLength="111"
         x="231"
         y="136.4966"
         id="text23">THD::sql_parser()</text><rect
         fill="#eeeeee"
         height="3"
         style="stroke:#eeeeee;stroke-width:1"
         width="1029"
         x="0"
         y="170.12891"
         id="rect23" /><line
         style="stroke:#000000;stroke-width:1"
         x1="0"
         x2="1029"
         y1="170.12891"
         y2="170.12891"
         id="line24" /><line
         style="stroke:#000000;stroke-width:1"
         x1="0"
         x2="1029"
         y1="173.12891"
         y2="173.12891"
         id="line25" /><rect
         fill="#eeeeee"
         height="23.132799"
         style="stroke:#000000;stroke-width:2"
         width="112"
         x="458.5"
         y="159.5625"
         id="rect25" /><text
         fill="#000000"
         font-family="sans-serif"
         font-size="13px"
         font-weight="bold"
         lengthAdjust="spacing"
         textLength="93"
         x="464.5"
         y="175.62939"
         id="text25">Bison parser</text><rect
         fill="#eeeeee"
         height="3"
         style="stroke:#eeeeee;stroke-width:1"
         width="1029"
         x="0"
         y="213.2617"
         id="rect26" /><line
         style="stroke:#000000;stroke-width:1"
         x1="0"
         x2="1029"
         y1="213.2617"
         y2="213.2617"
         id="line26" /><line
         style="stroke:#000000;stroke-width:1"
         x1="0"
         x2="1029"
         y1="216.2617"
         y2="216.2617"
         id="line27" /><rect
         fill="#eeeeee"
         height="23.132799"
         style="stroke:#000000;stroke-width:2"
         width="167"
         x="431"
         y="202.6953"
         id="rect27" /><text
         fill="#000000"
         font-family="sans-serif"
         font-size="13px"
         font-weight="bold"
         lengthAdjust="spacing"
         textLength="148"
         x="437"
         y="218.76221"
         id="text27">Build SQL command</text><polygon
         fill="#181818"
         points="483.5,256.9609 479.5,252.9609 489.5,256.9609 479.5,260.9609 "
         style="stroke:#181818;stroke-width:1"
         id="polygon27" /><line
         style="stroke:#181818;stroke-width:1"
         x1="359"
         x2="485.5"
         y1="256.96091"
         y2="256.96091"
         id="line28" /><text
         fill="#000000"
         font-family="sans-serif"
         font-size="13px"
         lengthAdjust="spacing"
         textLength="81"
         x="366"
         y="251.895"
         id="text28">make_cmd()</text><line
         style="stroke:#181818;stroke-width:1"
         x1="491.5"
         x2="533.5"
         y1="286.09381"
         y2="286.09381"
         id="line29" /><line
         style="stroke:#181818;stroke-width:1"
         x1="533.5"
         x2="533.5"
         y1="286.09381"
         y2="299.09381"
         id="line30" /><line
         style="stroke:#181818;stroke-width:1"
         x1="492.5"
         x2="533.5"
         y1="299.09381"
         y2="299.09381"
         id="line31" /><polygon
         fill="#181818"
         points="498.5,299.0938 502.5,295.0938 492.5,299.0938 502.5,303.0938 "
         style="stroke:#181818;stroke-width:1"
         id="polygon31" /><text
         fill="#000000"
         font-family="sans-serif"
         font-size="13px"
         lengthAdjust="spacing"
         textLength="95"
         x="498.5"
         y="281.0278"
         id="text31">contextualize()</text><polygon
         fill="#181818"
         points="760,328.2266 756,324.2266 766,328.2266 756,332.2266 "
         style="stroke:#181818;stroke-width:1"
         id="polygon32" /><line
         style="stroke:#181818;stroke-width:1"
         x1="491.5"
         x2="762"
         y1="328.22659"
         y2="328.22659"
         id="line32" /><text
         fill="#000000"
         font-family="sans-serif"
         font-size="13px"
         lengthAdjust="spacing"
         textLength="40"
         x="498.5"
         y="323.16061"
         id="text32">build()</text><polygon
         fill="#181818"
         points="963,357.3594 959,353.3594 969,357.3594 959,361.3594 "
         style="stroke:#181818;stroke-width:1"
         id="polygon33" /><line
         style="stroke:#181818;stroke-width:1"
         x1="778"
         x2="965"
         y1="357.35941"
         y2="357.35941"
         id="line33" /><text
         fill="#000000"
         font-family="sans-serif"
         font-size="13px"
         lengthAdjust="spacing"
         textLength="129"
         x="785"
         y="352.29349"
         id="text33">ha_resolve_engine()</text><polygon
         fill="#181818"
         points="785,386.4922 789,382.4922 779,386.4922 789,390.4922 "
         style="stroke:#181818;stroke-width:1"
         id="polygon34" /><line
         style="stroke:#181818;stroke-width:1;stroke-dasharray:2, 2"
         x1="783"
         x2="970"
         y1="386.49219"
         y2="386.49219"
         id="line34" /><text
         fill="#000000"
         font-family="sans-serif"
         font-size="13px"
         lengthAdjust="spacing"
         textLength="169"
         x="795"
         y="381.4263"
         id="text34">storage engine handlerton</text><polygon
         fill="#181818"
         points="498.5,415.625 502.5,411.625 492.5,415.625 502.5,419.625 "
         style="stroke:#181818;stroke-width:1"
         id="polygon35" /><line
         style="stroke:#181818;stroke-width:1;stroke-dasharray:2, 2"
         x1="496.5"
         x2="767"
         y1="415.625"
         y2="415.625"
         id="line35" /><text
         fill="#000000"
         font-family="sans-serif"
         font-size="13px"
         lengthAdjust="spacing"
         textLength="175"
         x="508.5"
         y="410.55911"
         id="text35">Parse Tree (contextualized)</text><polygon
         fill="#181818"
         points="624.5,444.7578 620.5,440.7578 630.5,444.7578 620.5,448.7578 "
         style="stroke:#181818;stroke-width:1"
         id="polygon36" /><line
         style="stroke:#181818;stroke-width:1"
         x1="491.5"
         x2="626.5"
         y1="444.75781"
         y2="444.75781"
         id="line36" /><text
         fill="#000000"
         font-family="sans-serif"
         font-size="13px"
         lengthAdjust="spacing"
         textLength="40"
         x="498.5"
         y="439.69189"
         id="text36">build()</text><polygon
         fill="#181818"
         points="231,473.8906 235,469.8906 225,473.8906 235,477.8906 "
         style="stroke:#181818;stroke-width:1"
         id="polygon37" /><line
         style="stroke:#181818;stroke-width:1;stroke-dasharray:2, 2"
         x1="229"
         x2="631.5"
         y1="473.89059"
         y2="473.89059"
         id="line37" /><text
         fill="#000000"
         font-family="sans-serif"
         font-size="13px"
         lengthAdjust="spacing"
         textLength="97"
         x="241"
         y="468.82471"
         id="text37">SQL Command</text><!--SRC=[RP7DRiCW48JlFCKgf_IG5q1r9ITnbKhkZnDNQayMWLMAYd4As4hwz0Ni_3ZgpSn-7cPOnbrZG0W5pC9aiSxICeCodUSP52sQuuJicN6IoptJ3YoQ3ar4du-R8eTD5CQG_xO3592tU1mZpBeuJxVM6SOTR8xQiGEK1d5CybgSdHPDNJCjRW0PvwkqwiDNJo-FhpU1LBkJ-YfrBqm82Rrd3wTQ59RB78htRFq9PVPHaa7tnD29GhbQKcf_LDKhqpkI932Njj4d9acYr4eb85p6-zH17mZl5nw0Gis-iV8DlKiGpZfljCE3QvcIltWP-geKji4uQDp9ZZdqAl63aB6lIU6BLGPjepgiK7ifM7ZaVZQxCDQldUqGUi3_eeL2uneTBmjel2qkBwu5fgDKufBAR-Y_MBKulLzqYzJL5iaV]--></g></g><g
     inkscape:groupmode="layer"
     id="layer2"
     inkscape:label="图层 2"
     style="display:inline"><g
       id="g1"
       transform="matrix(1.4236711,0,0,1.4236711,169.54389,24.409185)"><path
         fill="#00618a"
         d="M 0,91.313 H 4.242 V 74.566 l 6.566,14.598 c 0.773,1.77 1.832,2.391 3.914,2.391 2.082,0 3.098,-0.621 3.871,-2.391 l 6.566,-14.598 v 16.746 h 4.242 V 74.594 c 0,-1.633 -0.652,-2.422 -2,-2.828 -3.223,-1.004 -5.383,-0.137 -6.363,2.039 L 14.597,88.215 8.359,73.805 C 7.422,71.629 5.219,70.762 2,71.766 0.652,72.172 0,72.961 0,74.594 Z M 32.93,77.68 h 4.238 v 9.227 c -0.039,0.5 0.16,1.676 2.484,1.715 h 9.223 V 77.633 h 4.25 c 0.02,0 -0.008,14.984 -0.008,15.047 0.023,3.695 -4.582,4.496 -6.707,4.559 H 33.02 v -2.852 l 13.414,-0.004 c 2.73,-0.285 2.406,-1.645 2.406,-2.098 v -1.113 h -9.012 c -4.195,-0.039 -6.863,-1.871 -6.898,-3.977 -0.004,-0.191 0.09,-9.422 0,-9.516 z m 0,0"
         id="path1" /><path
         fill="#e48e00"
         d="m 56.391,91.313 h 12.195 c 1.426,0 2.813,-0.301 3.914,-0.816 1.836,-0.84 2.73,-1.984 2.73,-3.48 v -3.098 c 0,-1.223 -1.016,-2.367 -3.016,-3.125 -1.059,-0.41 -2.367,-0.625 -3.629,-0.625 h -5.141 c -1.711,0 -2.527,-0.516 -2.73,-1.656 -0.039,-0.137 -0.039,-0.246 -0.039,-0.383 V 76.2 c 0,-0.109 0,-0.219 0.039,-0.355 0.203,-0.867 0.652,-1.113 2.16,-1.25 l 0.41,-0.027 H 75.393 V 71.744 H 63.488 c -1.711,0 -2.609,0.109 -3.426,0.352 -2.527,0.789 -3.629,2.039 -3.629,4.215 v 2.473 c 0,1.902 2.16,3.535 5.789,3.914 l 1.223,0.055 h 4.406 c 0.164,0 0.324,0 0.449,0.027 1.344,0.109 1.914,0.355 2.324,0.844 0.211,0.195 0.332,0.473 0.324,0.758 v 2.477 c 0,0.297 -0.203,0.68 -0.609,1.004 -0.367,0.328 -0.98,0.543 -1.793,0.598 l -0.449,0.027 H 56.391 Z m 45.297,-4.922 c 0,2.91 2.164,4.539 6.523,4.867 l 1.227,0.055 h 11.051 v -2.828 h -11.133 c -2.488,0 -3.426,-0.625 -3.426,-2.121 V 71.738 h -4.238 V 86.39 Z m -23.75,0.148 V 76.457 c 0,-2.559 1.801,-4.113 5.355,-4.602 a 7.976,7.976 0 0 1 1.145,-0.082 h 8.047 c 0.41,0 0.777,0.027 1.188,0.082 3.555,0.488 5.352,2.043 5.352,4.602 v 10.082 c 0,2.078 -0.762,3.188 -2.523,3.914 l 4.18,3.77 h -4.926 l -3.379,-3.051 -3.402,0.215 H 84.44 A 9.23,9.23 0 0 1 81.948,91.035 C 79.249,90.301 77.94,88.883 77.94,86.539 Z m 4.578,-0.246 c 0,0.137 0.039,0.273 0.082,0.438 0.246,1.172 1.348,1.824 3.023,1.824 h 3.852 L 85.934,85.36 h 4.926 l 3.086,2.789 c 0.57,-0.305 0.941,-0.766 1.074,-1.363 0.039,-0.137 0.039,-0.273 0.039,-0.41 v -9.668 c 0,-0.109 0,-0.246 -0.039,-0.383 -0.246,-1.09 -1.348,-1.715 -2.984,-1.715 h -6.414 c -1.879,0 -3.105,0.816 -3.105,2.098 z m 0,0"
         id="path2" /><path
         fill="#00618a"
         d="m 124.219,67.047 c -2.605,-0.07 -4.598,0.172 -6.301,0.891 -0.484,0.203 -1.258,0.207 -1.336,0.813 0.266,0.281 0.309,0.699 0.52,1.039 0.406,0.66 1.094,1.539 1.707,2 l 2.074,1.484 c 1.273,0.777 2.699,1.223 3.93,2 0.723,0.461 1.441,1.039 2.148,1.559 0.348,0.254 0.582,0.656 1.039,0.816 v -0.074 c -0.238,-0.305 -0.301,-0.723 -0.52,-1.039 l -0.965,-0.965 c -0.941,-1.25 -2.137,-2.348 -3.41,-3.262 -1.016,-0.727 -3.281,-1.711 -3.707,-2.891 l -0.074,-0.074 c 0.719,-0.078 1.563,-0.34 2.223,-0.516 1.117,-0.301 2.113,-0.223 3.262,-0.52 l 1.559,-0.449 v -0.293 c -0.582,-0.598 -0.996,-1.387 -1.633,-1.93 -1.656,-1.41 -3.469,-2.824 -5.336,-4.004 -1.035,-0.652 -2.312,-1.074 -3.41,-1.629 -0.367,-0.187 -1.016,-0.281 -1.262,-0.594 -0.574,-0.734 -0.887,-1.664 -1.332,-2.52 l -2.668,-5.633 c -0.562,-1.285 -0.93,-2.555 -1.633,-3.707 -3.363,-5.535 -6.988,-8.875 -12.602,-12.156 -1.191,-0.699 -2.633,-0.973 -4.148,-1.332 l -2.449,-0.148 c -0.496,-0.211 -1.012,-0.82 -1.48,-1.113 -1.859,-1.176 -6.629,-3.73 -8.008,-0.371 -0.867,2.121 1.301,4.191 2.078,5.266 0.543,0.754 1.242,1.598 1.629,2.445 0.258,0.555 0.301,1.113 0.52,1.703 0.539,1.453 1.008,3.031 1.707,4.375 0.352,0.68 0.738,1.395 1.184,2 0.273,0.371 0.742,0.539 0.816,1.113 -0.457,0.641 -0.484,1.633 -0.742,2.445 -1.16,3.652 -0.723,8.191 0.965,10.898 0.516,0.828 1.734,2.609 3.41,1.926 1.465,-0.598 1.137,-2.445 1.555,-4.078 0.098,-0.367 0.039,-0.641 0.223,-0.887 v 0.074 l 1.336,2.668 c 0.988,1.59 2.738,3.25 4.223,4.371 0.773,0.582 1.379,1.59 2.375,1.93 V 68.6 h -0.074 c -0.195,-0.297 -0.496,-0.422 -0.742,-0.664 -0.582,-0.57 -1.227,-1.277 -1.703,-1.93 -1.352,-1.832 -2.547,-3.84 -3.633,-5.93 -0.52,-0.996 -0.973,-2.098 -1.41,-3.113 -0.168,-0.391 -0.164,-0.984 -0.516,-1.184 -0.48,0.742 -1.187,1.344 -1.559,2.223 -0.594,1.402 -0.668,3.117 -0.891,4.891 l -0.148,0.074 c -1.031,-0.25 -1.395,-1.312 -1.777,-2.223 -0.973,-2.305 -1.152,-6.02 -0.297,-8.672 0.219,-0.687 1.219,-2.852 0.813,-3.484 -0.191,-0.633 -0.828,-1 -1.184,-1.484 A 11.7,11.7 0 0 1 87.378,45.03 c -0.793,-1.801 -1.164,-3.816 -2,-5.633 -0.398,-0.871 -1.074,-1.75 -1.629,-2.523 -0.617,-0.855 -1.305,-1.484 -1.781,-2.52 -0.168,-0.367 -0.398,-0.957 -0.148,-1.336 0.078,-0.254 0.195,-0.359 0.445,-0.441 0.43,-0.332 1.629,0.109 2.074,0.293 1.191,0.496 2.184,0.965 3.191,1.633 0.48,0.32 0.969,0.941 1.555,1.113 h 0.668 c 1.043,0.238 2.211,0.07 3.188,0.367 1.723,0.523 3.27,1.34 4.668,2.227 4.273,2.695 7.766,6.535 10.156,11.117 0.387,0.738 0.551,1.441 0.891,2.223 0.684,1.578 1.543,3.203 2.223,4.746 0.68,1.543 1.34,3.094 2.297,4.375 0.504,0.672 2.453,1.031 3.336,1.406 0.621,0.262 1.637,0.535 2.223,0.891 1.125,0.676 2.211,1.48 3.266,2.223 0.523,0.375 2.141,1.188 2.223,1.855 z M 91.082,38.805 a 5.26,5.26 0 0 0 -1.332,0.148 v 0.074 h 0.074 c 0.258,0.535 0.715,0.879 1.035,1.336 l 0.742,1.555 0.074,-0.07 c 0.461,-0.324 0.668,-0.844 0.668,-1.633 -0.187,-0.195 -0.211,-0.437 -0.371,-0.668 -0.211,-0.309 -0.621,-0.48 -0.891,-0.742 z m 0,0"
         id="path3" /></g></g><g
     inkscape:groupmode="layer"
     id="layer3"
     inkscape:label="图层 3"
     sodipodi:insensitive="true"><text
       xml:space="preserve"
       style="font-size:52.3118px;fill:#00618a;fill-opacity:1;stroke-width:0.272457"
       x="125.55416"
       y="124.22328"
       id="text1"
       transform="scale(1.062977,0.94075411)"><tspan
         sodipodi:role="line"
         id="tspan1"
         style="font-style:normal;font-variant:normal;font-weight:normal;font-stretch:normal;font-size:52.3118px;font-family:'Microsoft YaHei';-inkscape-font-specification:'Microsoft YaHei';fill:#00618a;fill-opacity:1;stroke-width:0.272457"
         x="125.55416"
         y="124.22328">读</tspan></text><text
       xml:space="preserve"
       style="font-style:normal;font-variant:normal;font-weight:normal;font-stretch:normal;font-size:49.744px;font-family:'Microsoft YaHei';-inkscape-font-specification:'Microsoft YaHei';fill:#e48e00;fill-opacity:1;stroke-width:0.259083"
       x="123.02442"
       y="228.88535"
       id="text2"
       transform="scale(1.1222371,0.89107728)"><tspan
         sodipodi:role="line"
         id="tspan2"
         style="fill:#e48e00;fill-opacity:1;stroke-width:0.259083"
         x="123.02442"
         y="228.88535">源码</tspan></text></g></svg>
